<svg xmlns="http://www.w3.org/2000/svg" width="594" height="610" viewBox="0 0 593.60 610.00" role="img" aria-label="A1-organisation-directory">
<title>A1-organisation-directory</title>
<style>
  :root {
    --wf-bg: #ffffff;
    --wf-panel: #fbfbfd;
    --wf-stroke: #7a8394;
    --wf-stroke-strong: #2f6feb;
    --wf-text: #1a1f2b;
    --wf-shade: #2f6feb;
  }
  @media (prefers-color-scheme: dark) {
    :root {
      --wf-bg: #14171d;
      --wf-panel: #1b1f27;
      --wf-stroke: #7d8798;
      --wf-text: #e4e8ef;
      --wf-stroke-strong: #6fa0ff;
      --wf-shade: #6fa0ff;
    }
  }
  .bg { fill: var(--wf-bg); }
  .ln { stroke: var(--wf-stroke); stroke-width: 1.15; }
  .ln.dbl { stroke: var(--wf-stroke-strong); stroke-width: 1.9; }
  .tx {
    fill: var(--wf-text);
    font-size: 13.0px;
    font-family: ui-monospace, SFMono-Regular, SF Mono, Menlo, Consolas, DejaVu Sans Mono, monospace;
    white-space: pre;
    dominant-baseline: middle;
  }
  .sh { fill: var(--wf-shade); }
</style>
<rect class="bg" x="0" y="0" width="593.60" height="610.00" rx="6"/>
<path class="ln" fill="none" d="M19.9 24.5L573.7 24.5 M19.9 58.5L573.7 58.5 M51.1 126.5L526.9 126.5 M51.1 160.5L526.9 160.5 M51.1 228.5L230.5 228.5 M253.9 228.5L433.3 228.5 M51.1 347.5L230.5 347.5 M253.9 347.5L433.3 347.5 M51.1 364.5L230.5 364.5 M253.9 364.5L433.3 364.5 M51.1 466.5L230.5 466.5 M253.9 466.5L433.3 466.5 M19.9 585.5L573.7 585.5 M19.9 24.5L19.9 585.5 M51.1 126.5L51.1 160.5 M51.1 228.5L51.1 347.5 M51.1 364.5L51.1 466.5 M230.5 228.5L230.5 347.5 M230.5 364.5L230.5 466.5 M253.9 228.5L253.9 347.5 M253.9 364.5L253.9 466.5 M433.3 228.5L433.3 347.5 M433.3 364.5L433.3 466.5 M526.9 126.5L526.9 160.5 M573.7 24.5L573.7 585.5"/>
<text class="tx" x="39.40" y="41.50">⛵</text>
<text class="tx" x="55.00" y="41.50" textLength="514.80" lengthAdjust="spacingAndGlyphs"> ItsPlainSailing                                    [Sign in ▸]   </text>
<text class="tx" x="23.80" y="92.50" textLength="546.00" lengthAdjust="spacingAndGlyphs">              Find your club or organisation                          </text>
<text class="tx" x="62.80" y="143.50">🔍</text>
<text class="tx" x="78.40" y="143.50" textLength="444.60" lengthAdjust="spacingAndGlyphs">  Search by name or code…                                </text>
<text class="tx" x="23.80" y="194.50" textLength="546.00" lengthAdjust="spacingAndGlyphs">   Filter:  [ All types ▾ ]   [ All countries ▾ ]                     </text>
<text class="tx" x="55.00" y="245.50" textLength="171.60" lengthAdjust="spacingAndGlyphs">  [logo]              </text>
<text class="tx" x="257.80" y="245.50" textLength="171.60" lengthAdjust="spacingAndGlyphs">  [logo]              </text>
<text class="tx" x="55.00" y="262.50" textLength="171.60" lengthAdjust="spacingAndGlyphs">  Kildare Hunt Pony   </text>
<text class="tx" x="257.80" y="262.50" textLength="171.60" lengthAdjust="spacingAndGlyphs">  Ballinasloe &amp; Dist. </text>
<text class="tx" x="55.00" y="279.50" textLength="171.60" lengthAdjust="spacingAndGlyphs">  Club                </text>
<text class="tx" x="257.80" y="279.50" textLength="171.60" lengthAdjust="spacingAndGlyphs">  Tennis Club         </text>
<text class="tx" x="55.00" y="296.50" textLength="171.60" lengthAdjust="spacingAndGlyphs">  khpc · Pony Club    </text>
<text class="tx" x="257.80" y="296.50" textLength="171.60" lengthAdjust="spacingAndGlyphs">  bdtc · Tennis Club  </text>
<text class="tx" x="55.00" y="313.50" textLength="171.60" lengthAdjust="spacingAndGlyphs">  Co. Kildare, IE     </text>
<text class="tx" x="257.80" y="313.50" textLength="171.60" lengthAdjust="spacingAndGlyphs">  Co. Galway, IE      </text>
<text class="tx" x="55.00" y="330.50" textLength="171.60" lengthAdjust="spacingAndGlyphs">             [Go ▸]   </text>
<text class="tx" x="257.80" y="330.50" textLength="171.60" lengthAdjust="spacingAndGlyphs">             [Go ▸]   </text>
<text class="tx" x="55.00" y="381.50" textLength="171.60" lengthAdjust="spacingAndGlyphs">  [logo]              </text>
<text class="tx" x="257.80" y="381.50" textLength="171.60" lengthAdjust="spacingAndGlyphs">  [logo]              </text>
<text class="tx" x="55.00" y="398.50" textLength="171.60" lengthAdjust="spacingAndGlyphs">  Dun Laoghaire       </text>
<text class="tx" x="257.80" y="398.50" textLength="171.60" lengthAdjust="spacingAndGlyphs">  Westport Sailing    </text>
<text class="tx" x="55.00" y="415.50" textLength="171.60" lengthAdjust="spacingAndGlyphs">  Sailing Club        </text>
<text class="tx" x="257.80" y="415.50" textLength="171.60" lengthAdjust="spacingAndGlyphs">  Club                </text>
<text class="tx" x="55.00" y="432.50" textLength="171.60" lengthAdjust="spacingAndGlyphs">  dlsc · Sailing Club </text>
<text class="tx" x="257.80" y="432.50" textLength="171.60" lengthAdjust="spacingAndGlyphs">  wsc · Sailing Club  </text>
<text class="tx" x="55.00" y="449.50" textLength="171.60" lengthAdjust="spacingAndGlyphs">             [Go ▸]   </text>
<text class="tx" x="257.80" y="449.50" textLength="171.60" lengthAdjust="spacingAndGlyphs">             [Go ▸]   </text>
<text class="tx" x="23.80" y="500.50" textLength="546.00" lengthAdjust="spacingAndGlyphs">                    ‹  1  2  3  …  12  ›                              </text>
<text class="tx" x="23.80" y="534.50" textLength="546.00" lengthAdjust="spacingAndGlyphs">   Already signed in?  Your organisations:                            </text>
<text class="tx" x="23.80" y="551.50" textLength="546.00" lengthAdjust="spacingAndGlyphs">   [ Kildare Hunt Pony Club ]  [ Ballinasloe &amp; Districts TC ]         </text>
</svg>
