<svg xmlns="http://www.w3.org/2000/svg" width="640" height="338" viewBox="0 0 640.40 338.00" role="img" aria-label="D9-merchandise-list">
<title>D9-merchandise-list</title>
<style>
  :root {
    --wf-bg: #ffffff;
    --wf-panel: #fbfbfd;
    --wf-stroke: #7a8394;
    --wf-stroke-strong: #2f6feb;
    --wf-text: #1a1f2b;
    --wf-shade: #2f6feb;
  }
  @media (prefers-color-scheme: dark) {
    :root {
      --wf-bg: #14171d;
      --wf-panel: #1b1f27;
      --wf-stroke: #7d8798;
      --wf-text: #e4e8ef;
      --wf-stroke-strong: #6fa0ff;
      --wf-shade: #6fa0ff;
    }
  }
  .bg { fill: var(--wf-bg); }
  .ln { stroke: var(--wf-stroke); stroke-width: 1.15; }
  .ln.dbl { stroke: var(--wf-stroke-strong); stroke-width: 1.9; }
  .tx {
    fill: var(--wf-text);
    font-size: 13.0px;
    font-family: ui-monospace, SFMono-Regular, SF Mono, Menlo, Consolas, DejaVu Sans Mono, monospace;
    white-space: pre;
    dominant-baseline: middle;
  }
  .sh { fill: var(--wf-shade); }
</style>
<rect class="bg" x="0" y="0" width="640.40" height="338.00" rx="6"/>
<path class="ln" fill="none" d="M19.9 24.5L604.9 24.5 M19.9 58.5L604.9 58.5 M43.3 109.5L160.3 109.5 M175.9 109.5L292.9 109.5 M308.5 109.5L425.5 109.5 M441.1 109.5L558.1 109.5 M43.3 177.5L160.3 177.5 M175.9 177.5L292.9 177.5 M308.5 177.5L425.5 177.5 M441.1 177.5L558.1 177.5 M43.3 296.5L160.3 296.5 M175.9 296.5L292.9 296.5 M308.5 296.5L425.5 296.5 M441.1 296.5L558.1 296.5 M19.9 313.5L604.9 313.5 M19.9 24.5L19.9 313.5 M43.3 109.5L43.3 296.5 M160.3 109.5L160.3 296.5 M175.9 109.5L175.9 296.5 M292.9 109.5L292.9 296.5 M308.5 109.5L308.5 296.5 M425.5 109.5L425.5 296.5 M441.1 109.5L441.1 296.5 M558.1 109.5L558.1 296.5 M604.9 109.5L604.9 313.5 M620.5 75.5L620.5 92.5"/>
<text class="tx" x="23.80" y="41.50" textLength="592.80" lengthAdjust="spacingAndGlyphs">  Merchandise                                                               </text>
<text class="tx" x="23.80" y="75.50" textLength="23.40" lengthAdjust="spacingAndGlyphs">  [</text>
<text class="tx" x="47.20" y="75.50">🔍</text>
<text class="tx" x="62.80" y="75.50" textLength="553.80" lengthAdjust="spacingAndGlyphs"> Search…]  [ Category: All ▾ ]  [ Sort: Newest ▾ ]                     </text>
<text class="tx" x="47.20" y="143.50" textLength="109.20" lengthAdjust="spacingAndGlyphs">   [image]    </text>
<text class="tx" x="179.80" y="143.50" textLength="109.20" lengthAdjust="spacingAndGlyphs">   [image]    </text>
<text class="tx" x="312.40" y="143.50" textLength="109.20" lengthAdjust="spacingAndGlyphs">   [image]    </text>
<text class="tx" x="445.00" y="143.50" textLength="109.20" lengthAdjust="spacingAndGlyphs">   [image]    </text>
<text class="tx" x="47.20" y="194.50" textLength="109.20" lengthAdjust="spacingAndGlyphs"> Club Polo    </text>
<text class="tx" x="179.80" y="194.50" textLength="109.20" lengthAdjust="spacingAndGlyphs"> Club Hoodie  </text>
<text class="tx" x="312.40" y="194.50" textLength="109.20" lengthAdjust="spacingAndGlyphs"> Kit Bag      </text>
<text class="tx" x="445.00" y="194.50" textLength="109.20" lengthAdjust="spacingAndGlyphs"> Club Cap     </text>
<text class="tx" x="47.20" y="211.50" textLength="109.20" lengthAdjust="spacingAndGlyphs"> Shirt        </text>
<text class="tx" x="47.20" y="228.50" textLength="109.20" lengthAdjust="spacingAndGlyphs"> €25.00       </text>
<text class="tx" x="179.80" y="228.50" textLength="109.20" lengthAdjust="spacingAndGlyphs"> €45.00       </text>
<text class="tx" x="312.40" y="228.50" textLength="109.20" lengthAdjust="spacingAndGlyphs"> €35.00       </text>
<text class="tx" x="445.00" y="228.50" textLength="109.20" lengthAdjust="spacingAndGlyphs"> €15.00       </text>
<text class="tx" x="47.20" y="245.50" textLength="109.20" lengthAdjust="spacingAndGlyphs"> 4 sizes      </text>
<text class="tx" x="179.80" y="245.50" textLength="109.20" lengthAdjust="spacingAndGlyphs"> 3 colours    </text>
<text class="tx" x="320.20" y="245.50">🔴</text>
<text class="tx" x="335.80" y="245.50" textLength="85.80" lengthAdjust="spacingAndGlyphs"> Out of    </text>
<text class="tx" x="445.00" y="245.50" textLength="109.20" lengthAdjust="spacingAndGlyphs"> One size     </text>
<text class="tx" x="312.40" y="262.50" textLength="109.20" lengthAdjust="spacingAndGlyphs">    stock     </text>
<text class="tx" x="47.20" y="279.50" textLength="109.20" lengthAdjust="spacingAndGlyphs"> [ View ▸ ]   </text>
<text class="tx" x="179.80" y="279.50" textLength="109.20" lengthAdjust="spacingAndGlyphs"> [ View ▸ ]   </text>
<text class="tx" x="312.40" y="279.50" textLength="109.20" lengthAdjust="spacingAndGlyphs"> [ View  ]    </text>
<text class="tx" x="445.00" y="279.50" textLength="109.20" lengthAdjust="spacingAndGlyphs"> [ View ▸ ]   </text>
</svg>
